<svg width="110" height="135" viewBox="0 0 110 135" fill="none" xmlns="http://www.w3.org/2000/svg">
<mask id="mask0_172_273" style="mask-type:luminance" maskUnits="userSpaceOnUse" x="15" y="25" width="81" height="84">
<path d="M15 25H95.7557V109H15V25Z" fill="white"/>
</mask>
<g mask="url(#mask0_172_273)">
<path d="M63.4359 89.6467C63.4359 89.6467 73.7292 57.7043 47.9513 50.9489C47.9513 50.9489 44.2687 48.5281 44.0492 47.6641C43.8229 46.8137 41.313 43.9746 39.6261 43.2341C39.6261 43.2341 38.1517 38.6805 37.1985 38.036C37.1985 38.036 39.2146 27.0501 36.7802 25.8774C34.3595 24.7322 30.8826 31.4938 30.8826 31.4938C30.8826 31.4938 24.8752 32.1247 24.1346 31.8092C23.3871 31.4938 17.3865 25.4659 16.2277 26.4191C15.0756 27.3655 15.1716 29.3816 16.7557 37.8371C16.7557 37.8371 11.057 44.2902 20.4315 53.5824C20.4315 53.5824 20.9527 54.6453 21.4945 56.5517C22.0156 58.4581 20.651 59.6719 22.6465 64.0334C24.6558 68.3949 28.6539 74.9509 28.0229 76.2126C28.0229 76.2126 28.4481 90.8057 26.96 91.4366C25.4787 92.0744 22.6877 94.8175 26.0068 96.4015C26.0068 96.4015 26.0274 98.301 27.1726 98.836C29.6483 99.988 32.2267 99.7823 33.3788 98.836C34.5309 97.8827 35.2715 97.6702 36.3345 95.2288L38.865 95.6608C38.6935 96.0517 38.2821 97.1695 38.7347 98.2599C38.7347 98.2599 39.1118 99.1446 40.2365 99.7824C42.0194 100.797 47.725 100.18 54.9872 98.1914C54.9872 98.1914 58.3475 100.523 63.8337 97.5605C69.3129 94.598 82.5901 94.5019 86.0731 98.1914C89.55 101.888 75.766 104.034 75.766 104.034C75.766 104.034 71.0206 107.73 77.2336 108.361C83.4467 108.999 98.8357 102.656 92.6084 96.3122C86.3816 89.962 73.9692 87.4317 63.4359 89.6467Z" fill="black"/>
</g>
</svg>
