<svg width="110" height="135" viewBox="0 0 110 135" fill="none" xmlns="http://www.w3.org/2000/svg">
<path d="M81.1451 68.008C82.8834 64.9885 83.317 61.59 83.8756 58.2111C84.7428 55.59 83.5162 55.4377 81.4186 54.4806C78.4147 53.0822 75.9655 50.8947 73.4772 48.7462C71.8952 47.672 70.7155 46.2579 69.442 44.8595C68.0123 43.7775 67.0123 40.0822 64.8053 41.1642C62.7819 42.2228 60.61 42.9454 58.5787 43.9845C55.7584 44.7931 52.8951 45.3165 50.0553 46.0079C46.86 46.6407 43.5319 45.9571 40.3326 45.8321C34.5396 45.3165 28.1486 45.4063 22.7706 47.3477C19.3839 47.6407 16.9854 43.9922 16.044 41.1133C15.0948 38.6016 16.5089 35.9453 16.4425 33.4727C15.4191 32.0313 12.7902 35.7852 12.3409 36.7266C9.50106 41.6524 11.5401 47.1796 15.669 50.7576C19.2628 53.8123 14.1378 54.0193 13.5401 63.6596C13.1143 68.7612 13.2002 74.5116 10.044 78.8316C9.08693 80.0152 7.54786 80.5308 6.49706 81.5933C4.98146 83.2925 5.43846 86.3628 5.26656 88.6245C4.83297 91.812 4.58297 97.8315 7.28216 100.026C9.84466 101.191 16.2627 101.573 15.5049 97.2062C15.4541 95.4015 13.2901 94.7101 13.2315 92.9874C13.5908 89.4483 12.708 88.6515 16.3956 87.1124C16.9112 86.9718 16.9698 87.7882 16.962 88.2374C17.1534 91.4249 16.6026 95.0186 19.0597 97.2921C20.8488 98.3077 24.0363 98.1905 26.0363 97.6398C27.6261 96.839 27.4933 94.1867 26.3019 93.0382C24.4542 91.882 23.9113 91.5968 24.048 89.1749C24.13 87.4288 26.0519 86.8702 27.1925 85.878C30.837 83.1163 34.5402 79.1436 35.2394 74.519C35.4972 72.9799 35.9972 70.2807 37.2785 69.4018C38.3527 69.0424 39.4738 69.7494 40.509 70.0424C43.5949 71.3158 46.6262 72.5736 49.7238 73.8549C52.5636 75.2611 55.6418 76.5033 58.7707 76.7768C59.9426 76.8276 60.5754 77.6908 60.5012 78.8237C60.591 81.1792 60.427 83.4839 60.4426 85.8315C60.7082 89.2768 60.341 92.7729 60.8996 96.1515C61.4152 97.6085 62.3644 98.9562 63.1379 100.312C64.3606 101.933 66.6848 101.62 68.466 101.429C70.3058 101.296 72.0363 100.648 71.7785 98.6164C70.548 92.2726 68.009 99.132 69.1301 87.1474C69.3801 84.1162 69.3645 81.1201 69.5129 78.0849C69.47 77.0693 70.0715 75.8974 71.1027 75.7451C72.4504 75.6552 71.5871 78.9678 71.8019 79.874C71.7668 84.0263 71.6613 88.2802 71.7941 92.483C72.0676 94.8463 73.7003 98.1353 75.8214 99.2642C78.3761 99.94 84.3097 100.038 83.255 95.9595C82.6378 93.0064 80.0167 93.5376 80.0089 91.2837C79.8527 83.5532 80.1261 75.6787 81.1417 68.0377L81.1574 67.9791L81.1451 68.008Z" fill="black"/>
<path d="M104.75 35.82C104.469 35.3942 103.976 35.1208 103.512 34.9294C101.516 34.0153 99.0428 34.0466 97.2343 32.6911C96.3515 31.8903 96.2929 30.5505 95.7616 29.527C95.2616 28.445 94.4218 27.4801 93.4491 26.7887C92.6327 26.1324 91.5858 25.8394 90.8202 25.1325C90.328 24.6481 90.1952 23.8669 90.078 23.0348C89.8202 21.8121 89.9023 20.57 89.5858 19.3825C88.5194 16.3786 85.6756 21.9294 85.0506 22.863C84.5663 23.7458 84.2186 23.6052 83.867 22.7536C83.3944 21.6208 82.91 20.4216 82.2615 19.3395C80.6209 16.7575 79.5076 20.1051 78.9568 21.5543C78.1678 23.3941 77.074 25.1598 76.7771 27.1481C76.41 29.1364 74.7459 30.4762 73.3396 31.7692C71.6248 33.4176 70.0505 35.1247 68.3865 36.9801C67.2967 38.1285 68.0194 39.1598 68.8201 40.316C71.5154 44.1285 79.6831 52.726 84.6681 53.082C85.5353 52.9492 85.9493 52.0586 86.4142 51.4101C87.0705 50.5273 87.7111 49.8046 88.3947 48.9062C89.2502 47.7148 90.5588 46.875 92.0666 47.1679C94.3713 47.5351 96.7033 47.1679 98.9182 46.5937C99.5823 46.4023 100.176 46.0273 100.684 45.5781C102.024 44.5469 102.871 43.2969 103.364 41.6758C103.606 41.0351 103.821 40.3946 104.071 39.7617C104.477 38.5469 105.434 37.1055 104.785 35.875L104.75 35.8242L104.75 35.82Z" fill="black"/>
</svg>
