<svg width="39" height="36" viewBox="0 0 39 36" fill="none" xmlns="http://www.w3.org/2000/svg">
<path d="M12.5042 0.37504C14.7658 0.0421237 17.1617 2.56837 17.8517 6.05421C18.5417 9.52046 17.2958 12.6146 15.0342 12.9671C12.7917 13.3196 10.3767 10.7934 9.66751 7.30754C8.95835 3.84129 10.2425 0.747124 12.5042 0.37504ZM26.2083 0.37504C28.4892 0.747124 29.7542 3.84129 29.0833 7.30754C28.355 10.7934 25.9592 13.3196 23.6975 12.9671C21.4167 12.6146 20.1708 9.52046 20.88 6.05421C21.57 2.56837 23.9658 0.0421237 26.2083 0.37504ZM2.25001 9.38337C4.43501 8.42379 7.40585 10.1667 8.95835 13.2021C10.415 16.2963 9.91668 19.5471 7.75085 20.5067C5.58501 21.4663 2.63335 19.743 1.11918 16.6684C-0.394986 13.5938 0.141681 10.3234 2.25001 9.38337ZM36.75 9.38337C38.8583 10.3234 39.395 13.5938 37.8808 16.6684C36.3667 19.743 33.415 21.4663 31.2492 20.5067C29.0833 19.5471 28.585 16.2963 30.0417 13.2021C31.5942 10.1667 34.565 8.42379 36.75 9.38337ZM33.5492 30.4942C33.6258 32.335 32.2458 34.3717 30.5975 35.1355C27.1667 36.7413 23.1033 33.4121 19.2892 33.4121C15.475 33.4121 11.3733 36.8784 8.00001 35.1355C6.08335 34.1759 4.76085 31.63 5.01001 29.515C5.35501 26.5971 8.78585 25.0305 10.8175 22.8959C13.52 20.1346 15.4367 14.945 19.2892 14.945C23.1225 14.945 25.1542 20.0563 27.7417 22.8959C29.8692 25.285 33.415 27.3021 33.5492 30.4942Z" fill="black"/>
</svg>
