<svg width="110" height="135" viewBox="0 0 110 135" fill="none" xmlns="http://www.w3.org/2000/svg">
<path fill-rule="evenodd" clip-rule="evenodd" d="M45.324 105.422C43.0271 106.738 40.4099 107.434 37.7498 107.434C22.8868 107.434 16.7578 88.1247 28.949 79.9217C42.715 70.6678 39.304 52.2967 55 52.2967C70.723 52.2967 67.293 70.6597 81.059 79.9217C93.266 88.1248 87.0707 107.434 72.266 107.434C66.7855 107.434 64.8715 104.59 60.231 103.684C56.8521 103.027 53.3521 103.055 49.731 103.781C48.106 104.098 46.7654 104.606 45.324 105.422ZM75.344 12.875C82.3987 14.6602 86.239 23.527 83.926 32.695C81.6135 41.8591 74.0237 47.843 66.969 46.07C59.9221 44.2927 56.082 35.418 58.387 26.258C60.6995 17.0861 68.2893 11.102 75.344 12.879V12.875ZM13.051 39.93C6.91818 41.4808 3.57048 49.2073 5.58218 57.18C7.60168 65.1566 14.2072 70.371 20.3402 68.821C26.4769 67.2702 29.8285 59.5515 27.809 51.571C25.7973 43.5944 19.1918 38.387 13.051 39.93ZM96.949 39.93C103.082 41.4808 106.429 49.2073 104.41 57.18C102.398 65.1566 95.7927 70.371 89.6599 68.821C83.5232 67.2702 80.1716 59.5515 82.1911 51.571C84.2028 43.5944 90.8082 38.387 96.949 39.93ZM34.656 12.875C27.6013 14.6602 23.761 23.527 26.074 32.695C28.3865 41.8591 35.9763 47.843 43.023 46.07C50.0777 44.2927 53.918 35.418 51.605 26.258C49.3003 17.0861 41.7105 11.102 34.656 12.879V12.875Z" fill="black"/>
</svg>
